<?xml version="1.0" encoding="UTF-8" standalone="no"?>
<!-- Created with Inkscape (http://www.inkscape.org/) -->

<svg
   xmlns:dc="http://purl.org/dc/elements/1.1/"
   xmlns:cc="http://creativecommons.org/ns#"
   xmlns:rdf="http://www.w3.org/1999/02/22-rdf-syntax-ns#"
   xmlns:svg="http://www.w3.org/2000/svg"
   xmlns="http://www.w3.org/2000/svg"
   xmlns:sodipodi="http://sodipodi.sourceforge.net/DTD/sodipodi-0.dtd"
   xmlns:inkscape="http://www.inkscape.org/namespaces/inkscape"
   width="48.232574mm"
   height="33.750195mm"
   viewBox="0 0 48.232575 33.750196"
   version="1.1"
   id="svg1043"
   inkscape:version="0.92.5 (2060ec1f9f, 2020-04-08)"
   sodipodi:docname="geodb-logo.svg">
  <defs
     id="defs1037">
    <marker
       inkscape:stockid="Arrow2Lend"
       orient="auto"
       refY="0"
       refX="0"
       id="Arrow2Lend"
       style="overflow:visible"
       inkscape:isstock="true">
      <path
         id="path2249"
         style="fill:#000000;fill-opacity:1;fill-rule:evenodd;stroke:#000000;stroke-width:0.625;stroke-linejoin:round;stroke-opacity:1"
         d="M 8.7185878,4.0337352 -2.2072895,0.01601326 8.7185884,-4.0017078 c -1.7454984,2.3720609 -1.7354408,5.6174519 -6e-7,8.035443 z"
         transform="matrix(-1.1,0,0,-1.1,-1.1,0)"
         inkscape:connector-curvature="0" />
    </marker>
    <marker
       inkscape:stockid="Arrow1Lend"
       orient="auto"
       refY="0"
       refX="0"
       id="Arrow1Lend"
       style="overflow:visible"
       inkscape:isstock="true">
      <path
         id="path2231"
         d="M 0,0 5,-5 -12.5,0 5,5 Z"
         style="fill:#000000;fill-opacity:1;fill-rule:evenodd;stroke:#000000;stroke-width:1.00000003pt;stroke-opacity:1"
         transform="matrix(-0.8,0,0,-0.8,-10,0)"
         inkscape:connector-curvature="0" />
    </marker>
  </defs>
  <sodipodi:namedview
     id="base"
     pagecolor="#ffffff"
     bordercolor="#666666"
     borderopacity="1.0"
     inkscape:pageopacity="0.0"
     inkscape:pageshadow="2"
     inkscape:zoom="1.4142136"
     inkscape:cx="86.901598"
     inkscape:cy="60.782664"
     inkscape:document-units="mm"
     inkscape:current-layer="layer1"
     showgrid="false"
     fit-margin-top="1"
     fit-margin-left="1"
     fit-margin-right="1"
     fit-margin-bottom="1"
     inkscape:window-width="1600"
     inkscape:window-height="835"
     inkscape:window-x="0"
     inkscape:window-y="0"
     inkscape:window-maximized="1"
     inkscape:snap-global="true"
     inkscape:object-paths="true"
     inkscape:snap-intersection-paths="true" />
  <metadata
     id="metadata1040">
    <rdf:RDF>
      <cc:Work
         rdf:about="">
        <dc:format>image/svg+xml</dc:format>
        <dc:type
           rdf:resource="http://purl.org/dc/dcmitype/StillImage" />
        <dc:title></dc:title>
      </cc:Work>
    </rdf:RDF>
  </metadata>
  <g
     inkscape:label="Layer 1"
     inkscape:groupmode="layer"
     id="layer1"
     transform="translate(145.08692,-33.567497)">
    <g
       id="g1591">
      <rect
         y="46.151024"
         x="-105.7963"
         height="6.6807308"
         width="4.6963539"
         id="rect1563"
         style="opacity:1;fill:#999999;fill-opacity:1;stroke:none;stroke-width:0.26458332;stroke-linecap:round;stroke-linejoin:round;stroke-miterlimit:4;stroke-dasharray:none;stroke-opacity:1" />
      <rect
         style="opacity:1;fill:#666666;fill-opacity:1;stroke:none;stroke-width:0.26458332;stroke-linecap:round;stroke-linejoin:round;stroke-miterlimit:4;stroke-dasharray:none;stroke-opacity:1"
         id="rect1565"
         width="4.6963539"
         height="3.770314"
         x="-105.7963"
         y="35.501545" />
      <rect
         style="opacity:1;fill:#b3b3b3;fill-opacity:1;stroke:none;stroke-width:0.26458332;stroke-linecap:round;stroke-linejoin:round;stroke-miterlimit:4;stroke-dasharray:none;stroke-opacity:1"
         id="rect1567"
         width="4.6963539"
         height="5.1593757"
         x="-105.7963"
         y="39.271858" />
      <rect
         style="opacity:1;fill:#e6e6e6;fill-opacity:1;stroke:none;stroke-width:0.26458332;stroke-linecap:round;stroke-linejoin:round;stroke-miterlimit:4;stroke-dasharray:none;stroke-opacity:1"
         id="rect1569"
         width="4.6963539"
         height="1.7197931"
         x="-105.7963"
         y="44.431232" />
    </g>
    <path
       style="opacity:1;fill:#a02c2c;fill-opacity:1;stroke:none;stroke-width:0.26458332;stroke-linecap:round;stroke-linejoin:round;stroke-miterlimit:4;stroke-dasharray:none;stroke-opacity:1"
       d="m -105.85032,56.698643 c -0.3638,-0.02894 -1.48001,-0.101476 -2.48047,-0.161188 -1.00046,-0.05971 -2.22085,-0.166161 -2.71198,-0.236552 -0.49113,-0.07039 -1.74129,-0.235531 -2.77812,-0.366979 -1.03684,-0.131448 -2.1977,-0.298206 -2.57969,-0.370574 -0.38199,-0.07237 -0.96242,-0.158965 -1.28984,-0.19244 -0.76262,-0.07797 -1.05301,-0.137213 -2.57969,-0.526321 -0.69123,-0.176175 -1.39072,-0.340037 -1.55443,-0.36414 -0.16371,-0.0241 -0.59531,-0.149318 -0.95911,-0.278254 -2.25023,-0.797517 -5.33286,-2.385979 -7.80521,-4.021987 -2.11819,-1.401647 -4.94812,-2.933876 -6.02819,-3.263882 -2.96607,-0.906257 -2.92576,-0.897534 -4.15827,-0.899817 -0.5457,-10e-4 -1.11869,0.0231 -1.27331,0.05359 l -0.28112,0.05542 v -4.106856 -4.106856 h 2.0093 2.0093 l 1.44682,0.267354 c 2.33869,0.432162 2.42676,0.465715 4.15787,1.584128 0.55337,0.357516 1.1818,0.738874 1.3965,0.847461 0.36858,0.186414 0.95262,0.651633 2.97006,2.365825 0.47294,0.401854 1.18731,0.981842 1.5875,1.288863 0.40018,0.30702 1.14864,0.919177 1.66324,1.360348 1.62115,1.389818 1.69757,1.445868 3.79379,2.78269 1.15144,0.734307 1.7932,1.082392 4.63021,2.511378 2.82798,1.424443 3.69535,1.771064 5.77372,2.307309 0.7717,0.199109 1.89423,0.491254 2.4945,0.64921 1.29577,0.340968 1.61339,0.390266 3.90261,0.605716 1.84723,0.173852 3.03762,0.204274 3.96875,0.101426 0.30923,-0.03416 0.830129,-0.07112 1.157551,-0.08214 0.359394,-0.0121 0.629952,-0.0528 0.68272,-0.102719 0.04807,-0.04547 0.219226,-0.08268 0.380339,-0.08268 h 0.29293 v 1.150044 1.150044 l -0.214974,0.04219 c -0.331689,0.0651 -6.876856,0.09978 -7.623306,0.04039 z"
       id="path1577"
       inkscape:connector-curvature="0" />
    <path
       style="opacity:1;fill:#de8787;fill-opacity:1;stroke:none;stroke-width:0.26458332;stroke-linecap:round;stroke-linejoin:round;stroke-miterlimit:4;stroke-dasharray:none;stroke-opacity:1"
       d="m -110.64589,63.464982 c -0.12733,-0.01326 -0.7673,-0.09712 -1.42214,-0.186373 -0.65484,-0.08925 -1.44363,-0.190566 -1.75286,-0.225139 -0.88124,-0.09852 -3.05574,-0.586886 -4.00183,-0.898753 -1.49022,-0.491236 -4.49762,-2.037244 -5.39088,-2.771284 -0.20009,-0.164425 -0.91447,-0.669179 -1.5875,-1.121676 -0.67304,-0.452496 -1.47671,-1.033266 -1.78594,-1.2906 -0.30923,-0.257334 -0.84501,-0.657612 -1.19062,-0.889508 -0.34562,-0.231895 -1.11952,-0.801442 -1.7198,-1.265659 -0.60027,-0.464217 -1.43371,-1.069105 -1.85208,-1.344196 -0.41837,-0.275089 -1.4104,-0.934385 -2.20451,-1.465101 -2.04304,-1.365407 -2.3325,-1.535761 -3.44874,-2.029701 -0.54692,-0.242014 -1.39624,-0.626154 -1.88737,-0.853644 -1.25577,-0.581665 -1.89912,-0.783758 -2.51227,-0.789177 -0.27355,-0.0024 -0.5949,0.01734 -0.7141,0.04391 l -0.21674,0.04831 0.0183,-0.973958 0.0183,-0.973958 0.33073,-0.07672 c 0.47286,-0.109697 1.64143,-0.105834 2.29177,0.0076 0.79109,0.137954 3.31522,0.905888 3.86116,1.174707 1.56187,0.769063 3.48513,1.869895 4.89342,2.800889 1.48272,0.980197 3.04942,1.873321 4.80926,2.741597 1.45178,0.716282 3.22805,1.461735 3.76284,1.579162 0.16029,0.0352 1.03558,0.243511 1.94509,0.462921 1.8062,0.43573 1.85841,0.446136 2.6789,0.533853 0.30924,0.03306 0.90455,0.122917 1.32292,0.199683 0.41837,0.07677 1.68341,0.257405 2.8112,0.401418 1.12779,0.144013 2.36306,0.30501 2.74505,0.357771 0.38199,0.05276 1.46844,0.141768 2.41432,0.197794 0.94589,0.05603 2.24069,0.135012 2.87735,0.175524 1.15896,0.07375 6.775276,0.03771 7.292576,-0.04679 l 0.248047,-0.04052 v 1.095527 1.095526 l -0.347266,-0.04649 c -0.461073,-0.06173 -2.122097,-0.05656 -3.555337,0.01106 -1.01704,0.04799 -1.29405,0.03692 -2.28203,-0.09115 -0.91209,-0.11823 -1.66795,-0.156568 -4.00183,-0.202978 -1.58253,-0.03147 -3.16011,-0.08232 -3.50572,-0.113013 -0.35892,-0.03187 -1.13897,-0.02905 -1.81901,0.0066 -0.83946,0.04397 -1.35867,0.04035 -1.76036,-0.01228 -0.31336,-0.04106 -0.80449,-0.07596 -1.09141,-0.07756 -0.48027,-0.0027 -1.13775,-0.06971 -1.65876,-0.169126 -0.16998,-0.03243 -0.24399,-0.0073 -0.38034,0.129019 -0.23377,0.233771 -0.21845,0.452959 0.0457,0.653742 0.3611,0.274483 0.61128,0.375192 1.11813,0.450087 0.26725,0.03949 0.61985,0.113965 0.78357,0.1655 0.44296,0.13944 1.82168,0.349744 2.83956,0.433135 0.49372,0.04045 1.29951,0.146077 1.79064,0.234728 0.49114,0.08865 1.36922,0.203798 1.95131,0.255876 0.58208,0.05208 1.22204,0.142827 1.42213,0.20166 0.64062,0.188362 4.65434,0.625309 5.73474,0.624303 1.28343,-0.0013 2.51636,-0.225544 3.297123,-0.599953 0.297513,-0.142669 0.571579,-0.2594 0.609031,-0.2594 0.03746,0 0.197853,-0.05888 0.356442,-0.130839 0.158588,-0.07196 0.325548,-0.131493 0.371025,-0.132292 0.06229,-0.0011 0.08268,0.227494 0.08268,0.926663 0,0.685808 -0.02159,0.934284 -0.08268,0.951728 -0.182536,0.05212 -1.600544,0.321535 -2.629301,0.49956 -1.65943,0.28716 -2.77989,0.400153 -4.6302,0.466928 -0.9277,0.03348 -2.11832,0.09092 -2.64584,0.127643 -0.91687,0.06383 -2.15265,0.07479 -2.64583,0.02347 z"
       id="path1579"
       inkscape:connector-curvature="0" />
    <path
       style="opacity:1;fill:#f4d7d7;fill-opacity:1;stroke:none;stroke-width:0.26458332;stroke-linecap:round;stroke-linejoin:round;stroke-miterlimit:4;stroke-dasharray:none;stroke-opacity:1"
       d="m -112.00188,63.969471 c -0.14552,-0.0301 -0.44318,-0.05667 -0.66146,-0.05904 -0.51527,-0.0056 -1.14386,-0.109236 -1.61135,-0.265674 -0.20517,-0.06865 -0.59627,-0.160038 -0.86912,-0.203078 -0.27285,-0.04304 -1.03188,-0.192744 -1.68672,-0.332674 -0.65484,-0.139933 -1.39898,-0.27251 -1.65364,-0.294619 -0.25467,-0.02212 -0.68627,-0.09664 -0.95912,-0.165634 -0.30929,-0.0782 -0.94441,-0.150241 -1.68672,-0.191315 -1.40548,-0.07777 -4.2085,-0.36607 -7.11068,-0.731361 -1.14597,-0.144243 -2.3366,-0.280337 -2.64583,-0.302432 -0.30923,-0.02209 -0.78548,-0.08226 -1.05833,-0.13371 -0.27285,-0.05144 -1.09141,-0.169482 -1.81901,-0.262308 -0.72761,-0.09283 -1.88847,-0.274452 -2.57969,-0.403614 -1.59569,-0.29817 -2.66978,-0.383768 -4.51445,-0.359781 l -1.47175,0.01913 v -5.730378 -5.730389 l 0.1819,-0.07791 c 0.10005,-0.04285 0.42003,-0.07556 0.71107,-0.07269 0.60842,0.006 1.21098,0.196569 2.4002,0.759106 0.38976,0.184367 1.08073,0.497625 1.53548,0.69613 1.17638,0.513505 1.93113,0.923152 2.68435,1.456966 0.36081,0.255707 1.35284,0.917809 2.20451,1.47134 0.85168,0.55353 2.14648,1.461315 2.87735,2.017299 0.73086,0.555984 1.58185,1.17949 1.89108,1.385568 0.30923,0.206079 0.81525,0.585269 1.12448,0.842645 0.30923,0.257375 1.04988,0.792927 1.64588,1.190116 0.596,0.397188 1.26573,0.866612 1.48828,1.043165 0.22255,0.176552 0.65765,0.485071 0.96688,0.685597 0.61281,0.397389 3.22566,1.72561 3.98913,2.027844 1.06187,0.420367 3.56739,1.004427 5.0067,1.167111 0.45476,0.0514 1.22866,0.153572 1.7198,0.227047 1.34183,0.200742 2.39281,0.226901 4.29021,0.106788 0.9226,-0.0584 2.01232,-0.106187 2.42159,-0.106187 1.46813,0 4.6068,-0.391547 6.030732,-0.75233 0.213077,-0.05399 0.558562,-0.118589 0.76775,-0.143557 l 0.380338,-0.0454 v 0.305279 0.305276 h -0.350573 c -0.192815,0 -0.380597,0.03003 -0.417295,0.06672 -0.03669,0.03669 -0.407278,0.09759 -0.823516,0.135311 -0.903006,0.08184 -1.434596,0.154241 -2.145856,0.292248 -0.34179,0.06631 -1.24356,0.124873 -2.54661,0.165362 -2.43112,0.07554 -7.33729,0.07428 -7.70599,-0.0019 z"
       id="path1581"
       inkscape:connector-curvature="0" />
    <path
       style="opacity:1;fill:#d35f5f;fill-opacity:1;stroke:none;stroke-width:0.26458332;stroke-linecap:round;stroke-linejoin:round;stroke-miterlimit:4;stroke-dasharray:none;stroke-opacity:1"
       d="m -142.32975,62.650348 v -2.050521 l 1.00873,-0.01532 c 2.09928,-0.03186 3.27999,0.05255 4.76528,0.340691 0.57451,0.111453 1.51213,0.262532 2.08359,0.335729 0.57146,0.0732 1.53015,0.206968 2.13042,0.297265 0.60028,0.09029 1.64207,0.223483 2.31511,0.295971 0.67303,0.07249 1.67018,0.19127 2.21588,0.263956 1.75149,0.233297 5.45492,0.606132 6.63314,0.667777 0.68154,0.03566 1.29578,0.103497 1.52135,0.168023 0.20808,0.05952 0.49739,0.12051 0.64291,0.135536 0.72426,0.07478 1.39111,0.183589 2.05052,0.334584 0.40018,0.09164 1.09967,0.235437 1.55443,0.319556 0.45475,0.08412 1.03049,0.213733 1.27941,0.288025 0.85356,0.254752 1.97572,0.306094 6.46289,0.295688 4.22206,-0.0098 5.47827,-0.06157 6.34676,-0.261575 0.23647,-0.05446 0.89689,-0.140147 1.467598,-0.190421 0.570708,-0.05027 1.097092,-0.123216 1.169741,-0.162097 0.07265,-0.03888 0.253106,-0.07069 0.401018,-0.07069 h 0.268933 v 0.529167 0.529166 h -22.15885 -22.15886 z"
       id="path1583"
       inkscape:connector-curvature="0" />
    <path
       style="opacity:1;fill:#f4d7d7;fill-opacity:1;stroke:none;stroke-width:0.26458332;stroke-linecap:round;stroke-linejoin:round;stroke-miterlimit:4;stroke-dasharray:none;stroke-opacity:1"
       d="m -104.42819,61.156153 c -2.92673,-0.307207 -3.46764,-0.373657 -3.69525,-0.453961 -0.30454,-0.10745 -0.95821,-0.204848 -2.01125,-0.299683 -0.42825,-0.03857 -1.18727,-0.141594 -1.68672,-0.228955 -0.49944,-0.08736 -1.30991,-0.191164 -1.80105,-0.230683 -0.93784,-0.07546 -2.36475,-0.29337 -2.64583,-0.404049 -0.091,-0.03581 -0.42306,-0.106691 -0.73802,-0.157506 -0.57705,-0.0931 -0.97858,-0.238815 -1.11671,-0.405257 -0.1254,-0.151093 -0.0178,-0.219035 0.25034,-0.158146 0.13662,0.03102 0.57582,0.0733 0.97601,0.09397 0.40018,0.02066 1.08479,0.07009 1.52135,0.109822 0.56668,0.05158 1.12489,0.05226 1.9513,0.0024 0.72513,-0.04377 1.33052,-0.04748 1.62057,-0.0099 0.25467,0.03296 1.68342,0.0773 3.175,0.09854 1.67679,0.02387 3.01497,0.07451 3.50573,0.132651 0.43657,0.05172 1.08989,0.129054 1.45183,0.171851 0.46475,0.05495 0.98944,0.06035 1.78594,0.01838 1.39124,-0.07331 3.29092,-0.07623 3.628337,-0.0056 0.250908,0.05254 0.251474,0.05341 0.231511,0.354388 l -0.02,0.301723 -0.597924,0.215812 c -0.328858,0.1187 -0.777311,0.306369 -0.996558,0.417044 -0.949036,0.479071 -2.789166,0.647079 -4.788596,0.437206 z"
       id="path1585"
       inkscape:connector-curvature="0" />
  </g>
</svg>
