<?xml version="1.0" encoding="UTF-8" standalone="no"?>
<!-- Created with Inkscape (http://www.inkscape.org/) -->

<svg
   xmlns:dc="http://purl.org/dc/elements/1.1/"
   xmlns:cc="http://creativecommons.org/ns#"
   xmlns:rdf="http://www.w3.org/1999/02/22-rdf-syntax-ns#"
   xmlns:svg="http://www.w3.org/2000/svg"
   xmlns="http://www.w3.org/2000/svg"
   xmlns:sodipodi="http://sodipodi.sourceforge.net/DTD/sodipodi-0.dtd"
   xmlns:inkscape="http://www.inkscape.org/namespaces/inkscape"
   width="30.699871mm"
   height="14.367338mm"
   viewBox="0 0 30.699871 14.367339"
   version="1.1"
   id="svg1043"
   inkscape:version="0.92.5 (2060ec1f9f, 2020-04-08)"
   sodipodi:docname="simon-logo.svg">
  <defs
     id="defs1037" />
  <sodipodi:namedview
     id="base"
     pagecolor="#ffffff"
     bordercolor="#666666"
     borderopacity="1.0"
     inkscape:pageopacity="0.0"
     inkscape:pageshadow="2"
     inkscape:zoom="5.6"
     inkscape:cx="61.345435"
     inkscape:cy="12.691454"
     inkscape:document-units="mm"
     inkscape:current-layer="layer1"
     showgrid="false"
     fit-margin-top="1"
     fit-margin-left="1"
     fit-margin-right="1"
     fit-margin-bottom="1"
     inkscape:window-width="1600"
     inkscape:window-height="835"
     inkscape:window-x="0"
     inkscape:window-y="0"
     inkscape:window-maximized="1" />
  <metadata
     id="metadata1040">
    <rdf:RDF>
      <cc:Work
         rdf:about="">
        <dc:format>image/svg+xml</dc:format>
        <dc:type
           rdf:resource="http://purl.org/dc/dcmitype/StillImage" />
        <dc:title />
      </cc:Work>
    </rdf:RDF>
  </metadata>
  <g
     inkscape:label="Layer 1"
     inkscape:groupmode="layer"
     id="layer1"
     transform="translate(195.03732,-40.351523)">
    <path
       inkscape:connector-curvature="0"
       id="path952"
       d="m -189.43148,42.439608 -3.10886,1.795239 a 0.89201208,0.89201208 0 0 1 0.26459,0.458887 l 3.10885,-1.795756 a 0.89201208,0.89201208 0 0 1 -0.26458,-0.45837 z"
       style="color:#000000;font-style:normal;font-variant:normal;font-weight:normal;font-stretch:normal;font-size:medium;line-height:normal;font-family:sans-serif;font-variant-ligatures:normal;font-variant-position:normal;font-variant-caps:normal;font-variant-numeric:normal;font-variant-alternates:normal;font-feature-settings:normal;text-indent:0;text-align:start;text-decoration:none;text-decoration-line:none;text-decoration-style:solid;text-decoration-color:#000000;letter-spacing:normal;word-spacing:normal;text-transform:none;writing-mode:lr-tb;direction:ltr;text-orientation:mixed;dominant-baseline:auto;baseline-shift:baseline;text-anchor:start;white-space:normal;shape-padding:0;clip-rule:nonzero;display:inline;overflow:visible;visibility:visible;opacity:1;isolation:auto;mix-blend-mode:normal;color-interpolation:sRGB;color-interpolation-filters:linearRGB;solid-color:#000000;solid-opacity:1;vector-effect:none;fill:#ffffff;fill-opacity:1;fill-rule:nonzero;stroke:#ffffff;stroke-width:0;stroke-linecap:butt;stroke-linejoin:miter;stroke-miterlimit:4;stroke-dasharray:none;stroke-dashoffset:0;stroke-opacity:1;color-rendering:auto;image-rendering:auto;shape-rendering:auto;text-rendering:auto;enable-background:accumulate" />
    <path
       inkscape:connector-curvature="0"
       id="path954"
       d="m -187.69309,42.440125 a 0.89201208,0.89201208 0 0 1 -0.26407,0.457336 l 3.10834,1.79524 a 0.89201208,0.89201208 0 0 1 0.2651,-0.45837 z"
       style="color:#000000;font-style:normal;font-variant:normal;font-weight:normal;font-stretch:normal;font-size:medium;line-height:normal;font-family:sans-serif;font-variant-ligatures:normal;font-variant-position:normal;font-variant-caps:normal;font-variant-numeric:normal;font-variant-alternates:normal;font-feature-settings:normal;text-indent:0;text-align:start;text-decoration:none;text-decoration-line:none;text-decoration-style:solid;text-decoration-color:#000000;letter-spacing:normal;word-spacing:normal;text-transform:none;writing-mode:lr-tb;direction:ltr;text-orientation:mixed;dominant-baseline:auto;baseline-shift:baseline;text-anchor:start;white-space:normal;shape-padding:0;clip-rule:nonzero;display:inline;overflow:visible;visibility:visible;opacity:1;isolation:auto;mix-blend-mode:normal;color-interpolation:sRGB;color-interpolation-filters:linearRGB;solid-color:#000000;solid-opacity:1;vector-effect:none;fill:#ffffff;fill-opacity:1;fill-rule:nonzero;stroke:#ffffff;stroke-width:0;stroke-linecap:butt;stroke-linejoin:miter;stroke-miterlimit:4;stroke-dasharray:none;stroke-dashoffset:0;stroke-opacity:1;color-rendering:auto;image-rendering:auto;shape-rendering:auto;text-rendering:auto;enable-background:accumulate" />
    <path
       inkscape:connector-curvature="0"
       id="path956"
       d="m -184.2442,45.740182 v 3.589962 a 0.89201208,0.89201208 0 0 1 0.52916,0 v -3.589962 a 0.89201208,0.89201208 0 0 1 -0.52916,0 z"
       style="color:#000000;font-style:normal;font-variant:normal;font-weight:normal;font-stretch:normal;font-size:medium;line-height:normal;font-family:sans-serif;font-variant-ligatures:normal;font-variant-position:normal;font-variant-caps:normal;font-variant-numeric:normal;font-variant-alternates:normal;font-feature-settings:normal;text-indent:0;text-align:start;text-decoration:none;text-decoration-line:none;text-decoration-style:solid;text-decoration-color:#000000;letter-spacing:normal;word-spacing:normal;text-transform:none;writing-mode:lr-tb;direction:ltr;text-orientation:mixed;dominant-baseline:auto;baseline-shift:baseline;text-anchor:start;white-space:normal;shape-padding:0;clip-rule:nonzero;display:inline;overflow:visible;visibility:visible;opacity:1;isolation:auto;mix-blend-mode:normal;color-interpolation:sRGB;color-interpolation-filters:linearRGB;solid-color:#000000;solid-opacity:1;vector-effect:none;fill:#ffffff;fill-opacity:1;fill-rule:nonzero;stroke:#ffffff;stroke-width:0;stroke-linecap:butt;stroke-linejoin:miter;stroke-miterlimit:4;stroke-dasharray:none;stroke-dashoffset:0;stroke-opacity:1;color-rendering:auto;image-rendering:auto;shape-rendering:auto;text-rendering:auto;enable-background:accumulate" />
    <path
       inkscape:connector-curvature="0"
       id="path958"
       d="m -184.84882,50.378141 -3.10937,1.793689 a 0.89201208,0.89201208 0 0 1 0.2651,0.458887 l 3.10834,-1.795756 a 0.89201208,0.89201208 0 0 1 -0.26407,-0.45682 z"
       style="color:#000000;font-style:normal;font-variant:normal;font-weight:normal;font-stretch:normal;font-size:medium;line-height:normal;font-family:sans-serif;font-variant-ligatures:normal;font-variant-position:normal;font-variant-caps:normal;font-variant-numeric:normal;font-variant-alternates:normal;font-feature-settings:normal;text-indent:0;text-align:start;text-decoration:none;text-decoration-line:none;text-decoration-style:solid;text-decoration-color:#000000;letter-spacing:normal;word-spacing:normal;text-transform:none;writing-mode:lr-tb;direction:ltr;text-orientation:mixed;dominant-baseline:auto;baseline-shift:baseline;text-anchor:start;white-space:normal;shape-padding:0;clip-rule:nonzero;display:inline;overflow:visible;visibility:visible;opacity:1;isolation:auto;mix-blend-mode:normal;color-interpolation:sRGB;color-interpolation-filters:linearRGB;solid-color:#000000;solid-opacity:1;vector-effect:none;fill:#ffffff;fill-opacity:1;fill-rule:nonzero;stroke:#ffffff;stroke-width:0;stroke-linecap:butt;stroke-linejoin:miter;stroke-miterlimit:4;stroke-dasharray:none;stroke-dashoffset:0;stroke-opacity:1;color-rendering:auto;image-rendering:auto;shape-rendering:auto;text-rendering:auto;enable-background:accumulate" />
    <path
       inkscape:connector-curvature="0"
       id="path960"
       d="m -192.27627,50.377108 a 0.89201208,0.89201208 0 0 1 -0.26407,0.45837 l 3.10834,1.795239 a 0.89201208,0.89201208 0 0 1 0.2651,-0.458887 z"
       style="color:#000000;font-style:normal;font-variant:normal;font-weight:normal;font-stretch:normal;font-size:medium;line-height:normal;font-family:sans-serif;font-variant-ligatures:normal;font-variant-position:normal;font-variant-caps:normal;font-variant-numeric:normal;font-variant-alternates:normal;font-feature-settings:normal;text-indent:0;text-align:start;text-decoration:none;text-decoration-line:none;text-decoration-style:solid;text-decoration-color:#000000;letter-spacing:normal;word-spacing:normal;text-transform:none;writing-mode:lr-tb;direction:ltr;text-orientation:mixed;dominant-baseline:auto;baseline-shift:baseline;text-anchor:start;white-space:normal;shape-padding:0;clip-rule:nonzero;display:inline;overflow:visible;visibility:visible;opacity:1;isolation:auto;mix-blend-mode:normal;color-interpolation:sRGB;color-interpolation-filters:linearRGB;solid-color:#000000;solid-opacity:1;vector-effect:none;fill:#ffffff;fill-opacity:1;fill-rule:nonzero;stroke:#ffffff;stroke-width:0;stroke-linecap:butt;stroke-linejoin:miter;stroke-miterlimit:4;stroke-dasharray:none;stroke-dashoffset:0;stroke-opacity:1;color-rendering:auto;image-rendering:auto;shape-rendering:auto;text-rendering:auto;enable-background:accumulate" />
    <path
       inkscape:connector-curvature="0"
       id="path962"
       d="m -193.41057,45.739665 v 3.590479 a 0.89201208,0.89201208 0 0 1 0.52968,-5.3e-4 v -3.589432 a 0.89201208,0.89201208 0 0 1 -0.52968,-5.29e-4 z"
       style="color:#000000;font-style:normal;font-variant:normal;font-weight:normal;font-stretch:normal;font-size:medium;line-height:normal;font-family:sans-serif;font-variant-ligatures:normal;font-variant-position:normal;font-variant-caps:normal;font-variant-numeric:normal;font-variant-alternates:normal;font-feature-settings:normal;text-indent:0;text-align:start;text-decoration:none;text-decoration-line:none;text-decoration-style:solid;text-decoration-color:#000000;letter-spacing:normal;word-spacing:normal;text-transform:none;writing-mode:lr-tb;direction:ltr;text-orientation:mixed;dominant-baseline:auto;baseline-shift:baseline;text-anchor:start;white-space:normal;shape-padding:0;clip-rule:nonzero;display:inline;overflow:visible;visibility:visible;opacity:1;isolation:auto;mix-blend-mode:normal;color-interpolation:sRGB;color-interpolation-filters:linearRGB;solid-color:#000000;solid-opacity:1;vector-effect:none;fill:#ffffff;fill-opacity:1;fill-rule:nonzero;stroke:#ffffff;stroke-width:0;stroke-linecap:butt;stroke-linejoin:miter;stroke-miterlimit:4;stroke-dasharray:none;stroke-dashoffset:0;stroke-opacity:1;color-rendering:auto;image-rendering:auto;shape-rendering:auto;text-rendering:auto;enable-background:accumulate" />
    <path
       inkscape:connector-curvature="0"
       id="path978"
       d="m -188.29719,43.094349 a 0.89201208,0.89201208 0 0 1 -0.2651,0.04134 0.89201208,0.89201208 0 0 1 -0.26406,-0.03979 v 3.587895 a 0.89201208,0.89201208 0 0 1 0.26406,-0.04082 0.89201208,0.89201208 0 0 1 0.2651,0.04031 z"
       style="color:#000000;font-style:normal;font-variant:normal;font-weight:normal;font-stretch:normal;font-size:medium;line-height:normal;font-family:sans-serif;font-variant-ligatures:normal;font-variant-position:normal;font-variant-caps:normal;font-variant-numeric:normal;font-variant-alternates:normal;font-feature-settings:normal;text-indent:0;text-align:start;text-decoration:none;text-decoration-line:none;text-decoration-style:solid;text-decoration-color:#000000;letter-spacing:normal;word-spacing:normal;text-transform:none;writing-mode:lr-tb;direction:ltr;text-orientation:mixed;dominant-baseline:auto;baseline-shift:baseline;text-anchor:start;white-space:normal;shape-padding:0;clip-rule:nonzero;display:inline;overflow:visible;visibility:visible;opacity:1;isolation:auto;mix-blend-mode:normal;color-interpolation:sRGB;color-interpolation-filters:linearRGB;solid-color:#000000;solid-opacity:1;vector-effect:none;fill:#ffffff;fill-opacity:1;fill-rule:nonzero;stroke:#ffffff;stroke-width:0;stroke-linecap:butt;stroke-linejoin:miter;stroke-miterlimit:4;stroke-dasharray:none;stroke-dashoffset:0;stroke-opacity:1;color-rendering:auto;image-rendering:auto;shape-rendering:auto;text-rendering:auto;enable-background:accumulate" />
    <path
       inkscape:connector-curvature="0"
       id="path980"
       d="m -188.29719,48.386015 a 0.89201208,0.89201208 0 0 1 -0.2651,0.04134 0.89201208,0.89201208 0 0 1 -0.26406,-0.03979 v 3.587895 a 0.89201208,0.89201208 0 0 1 0.26406,-0.04082 0.89201208,0.89201208 0 0 1 0.2651,0.04031 z"
       style="color:#000000;font-style:normal;font-variant:normal;font-weight:normal;font-stretch:normal;font-size:medium;line-height:normal;font-family:sans-serif;font-variant-ligatures:normal;font-variant-position:normal;font-variant-caps:normal;font-variant-numeric:normal;font-variant-alternates:normal;font-feature-settings:normal;text-indent:0;text-align:start;text-decoration:none;text-decoration-line:none;text-decoration-style:solid;text-decoration-color:#000000;letter-spacing:normal;word-spacing:normal;text-transform:none;writing-mode:lr-tb;direction:ltr;text-orientation:mixed;dominant-baseline:auto;baseline-shift:baseline;text-anchor:start;white-space:normal;shape-padding:0;clip-rule:nonzero;display:inline;overflow:visible;visibility:visible;opacity:1;isolation:auto;mix-blend-mode:normal;color-interpolation:sRGB;color-interpolation-filters:linearRGB;solid-color:#000000;solid-opacity:1;vector-effect:none;fill:#ffffff;fill-opacity:1;fill-rule:nonzero;stroke:#ffffff;stroke-width:0;stroke-linecap:butt;stroke-linejoin:miter;stroke-miterlimit:4;stroke-dasharray:none;stroke-dashoffset:0;stroke-opacity:1;color-rendering:auto;image-rendering:auto;shape-rendering:auto;text-rendering:auto;enable-background:accumulate" />
    <path
       inkscape:connector-curvature="0"
       id="path982"
       d="m -192.27575,45.085958 a 0.89201208,0.89201208 0 0 1 -0.0966,0.249597 0.89201208,0.89201208 0 0 1 -0.1664,0.208256 l 3.10731,1.794206 a 0.89201208,0.89201208 0 0 1 0.26355,-0.456819 z"
       style="color:#000000;font-style:normal;font-variant:normal;font-weight:normal;font-stretch:normal;font-size:medium;line-height:normal;font-family:sans-serif;font-variant-ligatures:normal;font-variant-position:normal;font-variant-caps:normal;font-variant-numeric:normal;font-variant-alternates:normal;font-feature-settings:normal;text-indent:0;text-align:start;text-decoration:none;text-decoration-line:none;text-decoration-style:solid;text-decoration-color:#000000;letter-spacing:normal;word-spacing:normal;text-transform:none;writing-mode:lr-tb;direction:ltr;text-orientation:mixed;dominant-baseline:auto;baseline-shift:baseline;text-anchor:start;white-space:normal;shape-padding:0;clip-rule:nonzero;display:inline;overflow:visible;visibility:visible;opacity:1;isolation:auto;mix-blend-mode:normal;color-interpolation:sRGB;color-interpolation-filters:linearRGB;solid-color:#000000;solid-opacity:1;vector-effect:none;fill:#ffffff;fill-opacity:1;fill-rule:nonzero;stroke:#ffffff;stroke-width:0;stroke-linecap:butt;stroke-linejoin:miter;stroke-miterlimit:4;stroke-dasharray:none;stroke-dashoffset:0;stroke-opacity:1;color-rendering:auto;image-rendering:auto;shape-rendering:auto;text-rendering:auto;enable-background:accumulate" />
    <path
       inkscape:connector-curvature="0"
       id="path984"
       d="m -187.69309,47.731275 a 0.89201208,0.89201208 0 0 1 -0.26458,0.45837 l 3.10885,1.794722 a 0.89201208,0.89201208 0 0 1 0.0966,-0.249597 0.89201208,0.89201208 0 0 1 0.16795,-0.20929 z"
       style="color:#000000;font-style:normal;font-variant:normal;font-weight:normal;font-stretch:normal;font-size:medium;line-height:normal;font-family:sans-serif;font-variant-ligatures:normal;font-variant-position:normal;font-variant-caps:normal;font-variant-numeric:normal;font-variant-alternates:normal;font-feature-settings:normal;text-indent:0;text-align:start;text-decoration:none;text-decoration-line:none;text-decoration-style:solid;text-decoration-color:#000000;letter-spacing:normal;word-spacing:normal;text-transform:none;writing-mode:lr-tb;direction:ltr;text-orientation:mixed;dominant-baseline:auto;baseline-shift:baseline;text-anchor:start;white-space:normal;shape-padding:0;clip-rule:nonzero;display:inline;overflow:visible;visibility:visible;opacity:1;isolation:auto;mix-blend-mode:normal;color-interpolation:sRGB;color-interpolation-filters:linearRGB;solid-color:#000000;solid-opacity:1;vector-effect:none;fill:#ffffff;fill-opacity:1;fill-rule:nonzero;stroke:#ffffff;stroke-width:0;stroke-linecap:butt;stroke-linejoin:miter;stroke-miterlimit:4;stroke-dasharray:none;stroke-dashoffset:0;stroke-opacity:1;color-rendering:auto;image-rendering:auto;shape-rendering:auto;text-rendering:auto;enable-background:accumulate" />
    <path
       inkscape:connector-curvature="0"
       id="path986"
       d="m -189.43148,47.731275 -3.10937,1.794722 a 0.89201208,0.89201208 0 0 1 0.16846,0.208773 0.89201208,0.89201208 0 0 1 0.0971,0.24908 l 3.10782,-1.794205 a 0.89201208,0.89201208 0 0 1 -0.26406,-0.45837 z"
       style="color:#000000;font-style:normal;font-variant:normal;font-weight:normal;font-stretch:normal;font-size:medium;line-height:normal;font-family:sans-serif;font-variant-ligatures:normal;font-variant-position:normal;font-variant-caps:normal;font-variant-numeric:normal;font-variant-alternates:normal;font-feature-settings:normal;text-indent:0;text-align:start;text-decoration:none;text-decoration-line:none;text-decoration-style:solid;text-decoration-color:#000000;letter-spacing:normal;word-spacing:normal;text-transform:none;writing-mode:lr-tb;direction:ltr;text-orientation:mixed;dominant-baseline:auto;baseline-shift:baseline;text-anchor:start;white-space:normal;shape-padding:0;clip-rule:nonzero;display:inline;overflow:visible;visibility:visible;opacity:1;isolation:auto;mix-blend-mode:normal;color-interpolation:sRGB;color-interpolation-filters:linearRGB;solid-color:#000000;solid-opacity:1;vector-effect:none;fill:#ffffff;fill-opacity:1;fill-rule:nonzero;stroke:#ffffff;stroke-width:0;stroke-linecap:butt;stroke-linejoin:miter;stroke-miterlimit:4;stroke-dasharray:none;stroke-dashoffset:0;stroke-opacity:1;color-rendering:auto;image-rendering:auto;shape-rendering:auto;text-rendering:auto;enable-background:accumulate" />
    <path
       inkscape:connector-curvature="0"
       id="path988"
       d="m -184.84933,45.085958 -3.10834,1.794723 a 0.89201208,0.89201208 0 0 1 0.26406,0.457336 l 3.10886,-1.794206 a 0.89201208,0.89201208 0 0 1 -0.16743,-0.208256 0.89201208,0.89201208 0 0 1 -0.0971,-0.249597 z"
       style="color:#000000;font-style:normal;font-variant:normal;font-weight:normal;font-stretch:normal;font-size:medium;line-height:normal;font-family:sans-serif;font-variant-ligatures:normal;font-variant-position:normal;font-variant-caps:normal;font-variant-numeric:normal;font-variant-alternates:normal;font-feature-settings:normal;text-indent:0;text-align:start;text-decoration:none;text-decoration-line:none;text-decoration-style:solid;text-decoration-color:#000000;letter-spacing:normal;word-spacing:normal;text-transform:none;writing-mode:lr-tb;direction:ltr;text-orientation:mixed;dominant-baseline:auto;baseline-shift:baseline;text-anchor:start;white-space:normal;shape-padding:0;clip-rule:nonzero;display:inline;overflow:visible;visibility:visible;opacity:1;isolation:auto;mix-blend-mode:normal;color-interpolation:sRGB;color-interpolation-filters:linearRGB;solid-color:#000000;solid-opacity:1;vector-effect:none;fill:#ffffff;fill-opacity:1;fill-rule:nonzero;stroke:#ffffff;stroke-width:0;stroke-linecap:butt;stroke-linejoin:miter;stroke-miterlimit:4;stroke-dasharray:none;stroke-dashoffset:0;stroke-opacity:1;color-rendering:auto;image-rendering:auto;shape-rendering:auto;text-rendering:auto;enable-background:accumulate" />
    <path
       style="opacity:1;fill:#ffffff;fill-opacity:1;stroke:#ffffff;stroke-width:0;stroke-miterlimit:4;stroke-dasharray:none;stroke-opacity:1"
       d="m -187.67042,47.535193 a 0.89201209,0.89201209 0 0 1 -0.89201,0.892008 0.89201209,0.89201209 0 0 1 -0.89202,-0.892008 0.89201209,0.89201209 0 0 1 0.89202,-0.89202 0.89201209,0.89201209 0 0 1 0.89201,0.89202 z"
       id="path899"
       inkscape:connector-curvature="0" />
    <path
       style="opacity:1;fill:#ffffff;fill-opacity:1;stroke:#ffffff;stroke-width:0;stroke-miterlimit:4;stroke-dasharray:none;stroke-opacity:1"
       d="m -187.67042,42.243532 a 0.89201209,0.89201209 0 0 1 -0.89201,0.892008 0.89201209,0.89201209 0 0 1 -0.89202,-0.892008 0.89201209,0.89201209 0 0 1 0.89202,-0.892008 0.89201209,0.89201209 0 0 1 0.89201,0.892008 z"
       id="path901"
       inkscape:connector-curvature="0" />
    <path
       style="opacity:1;fill:#ffffff;fill-opacity:1;stroke:#ffffff;stroke-width:0;stroke-miterlimit:4;stroke-dasharray:none;stroke-opacity:1"
       d="m -187.67042,52.826841 a 0.89201209,0.89201209 0 0 1 -0.89201,0.89202 0.89201209,0.89201209 0 0 1 -0.89202,-0.89202 0.89201209,0.89201209 0 0 1 0.89202,-0.892008 0.89201209,0.89201209 0 0 1 0.89201,0.892008 z"
       id="path903"
       inkscape:connector-curvature="0" />
    <path
       style="opacity:1;fill:#ffffff;fill-opacity:1;stroke:#ffffff;stroke-width:0;stroke-miterlimit:4;stroke-dasharray:none;stroke-opacity:1"
       d="m -192.69915,44.116861 a 0.89201209,0.89201209 0 0 1 0.32651,1.218516 0.89201209,0.89201209 0 0 1 -1.21853,0.326496 0.89201209,0.89201209 0 0 1 -0.32649,-1.218516 0.89201209,0.89201209 0 0 1 1.21851,-0.326496 z"
       id="path905"
       inkscape:connector-curvature="0" />
    <path
       style="opacity:1;fill:#ffffff;fill-opacity:1;stroke:#ffffff;stroke-width:0;stroke-miterlimit:4;stroke-dasharray:none;stroke-opacity:1"
       d="m -183.53372,49.408521 a 0.89201209,0.89201209 0 0 1 0.32649,1.218504 0.89201209,0.89201209 0 0 1 -1.21852,0.326508 0.89201209,0.89201209 0 0 1 -0.32649,-1.218516 0.89201209,0.89201209 0 0 1 1.21852,-0.326496 z"
       id="path907"
       inkscape:connector-curvature="0" />
    <path
       style="opacity:1;fill:#ffffff;fill-opacity:1;stroke:#ffffff;stroke-width:0;stroke-miterlimit:4;stroke-dasharray:none;stroke-opacity:1"
       d="m -193.59114,49.408522 a 0.89201209,0.89201209 0 0 1 1.2185,0.326496 0.89201209,0.89201209 0 0 1 -0.3265,1.218504 0.89201209,0.89201209 0 0 1 -1.2185,-0.326496 0.89201209,0.89201209 0 0 1 0.3265,-1.218504 z"
       id="path909"
       inkscape:connector-curvature="0" />
    <path
       style="opacity:1;fill:#ffffff;fill-opacity:1;stroke:#ffffff;stroke-width:0;stroke-miterlimit:4;stroke-dasharray:none;stroke-opacity:1"
       d="m -184.42573,44.116871 a 0.89201209,0.89201209 0 0 1 1.2185,0.326496 0.89201209,0.89201209 0 0 1 -0.32649,1.218504 0.89201209,0.89201209 0 0 1 -1.21852,-0.326484 0.89201209,0.89201209 0 0 1 0.32651,-1.218516 z"
       id="path911"
       inkscape:connector-curvature="0" />
    <path
       inkscape:connector-curvature="0"
       id="path895"
       style="font-style:normal;font-variant:normal;font-weight:bold;font-stretch:normal;font-size:5.09293032px;line-height:1.25;font-family:Nunito;-inkscape-font-specification:'Nunito Bold';letter-spacing:0px;word-spacing:0px;fill:#ffffff;fill-opacity:1;stroke:none;stroke-width:0.26458329"
       d="m -180.1935,47.256751 q -0.34123,0 -0.66718,-0.07639 -0.32085,-0.07639 -0.56022,-0.229182 -0.11714,-0.07639 -0.1426,-0.188439 -0.0255,-0.112044 0.0153,-0.20881 0.0458,-0.101858 0.13751,-0.137509 0.0968,-0.04074 0.21899,0.03565 0.22409,0.132416 0.47364,0.193531 0.24956,0.06112 0.52458,0.06112 0.40234,0 0.58568,-0.132416 0.18335,-0.137509 0.18335,-0.351412 0,-0.178253 -0.13242,-0.280111 -0.12732,-0.101859 -0.44308,-0.168067 l -0.56023,-0.117138 q -0.95747,-0.203717 -0.95747,-0.982935 0,-0.336134 0.17826,-0.585687 0.17825,-0.249554 0.49401,-0.387063 0.31576,-0.137509 0.72829,-0.137509 0.30558,0 0.58059,0.07639 0.27502,0.07639 0.49402,0.224088 0.10186,0.0713 0.12223,0.178253 0.0204,0.101858 -0.0255,0.193531 -0.0458,0.08658 -0.14769,0.12223 -0.0968,0.03056 -0.22918,-0.04584 -0.18844,-0.106952 -0.38197,-0.152788 -0.19353,-0.04584 -0.41762,-0.04584 -0.35142,0 -0.55004,0.147695 -0.19862,0.147694 -0.19862,0.387062 0,0.183346 0.12223,0.295389 0.12223,0.106952 0.41762,0.168067 l 0.55513,0.117137 q 0.5042,0.106952 0.74866,0.336135 0.24955,0.229182 0.24955,0.61115 0,0.320856 -0.17316,0.565317 -0.17316,0.244459 -0.49401,0.381969 -0.31577,0.132416 -0.74866,0.132416 z" />
    <path
       inkscape:connector-curvature="0"
       id="path897"
       style="font-style:normal;font-variant:normal;font-weight:bold;font-stretch:normal;font-size:5.09293032px;line-height:1.25;font-family:Nunito;-inkscape-font-specification:'Nunito Bold';letter-spacing:0px;word-spacing:0px;fill:#ffffff;fill-opacity:1;stroke:none;stroke-width:0.26458329"
       d="m -177.89151,47.246564 q -0.32594,0 -0.32594,-0.336134 v -2.999736 q 0,-0.336132 0.32594,-0.336132 0.32595,0 0.32595,0.336132 v 2.999736 q 0,0.336134 -0.32595,0.336134 z" />
    <path
       inkscape:connector-curvature="0"
       id="path900"
       style="font-style:normal;font-variant:normal;font-weight:bold;font-stretch:normal;font-size:5.09293032px;line-height:1.25;font-family:Nunito;-inkscape-font-specification:'Nunito Bold';letter-spacing:0px;word-spacing:0px;fill:#ffffff;fill-opacity:1;stroke:none;stroke-width:0.26458329"
       d="m -176.47567,47.246564 q -0.29539,0 -0.29539,-0.305576 v -3.060851 q 0,-0.305576 0.30557,-0.305576 0.12732,0 0.19863,0.05093 0.0764,0.04584 0.1375,0.162974 l 1.17647,2.174681 1.17647,-2.174681 q 0.0611,-0.117137 0.13241,-0.162974 0.0713,-0.05093 0.19863,-0.05093 0.29539,0 0.29539,0.305576 v 3.060851 q 0,0.305576 -0.29539,0.305576 -0.29539,0 -0.29539,-0.305576 v -2.15431 l -0.95747,1.746875 q -0.0509,0.08658 -0.10695,0.127324 -0.056,0.04074 -0.15279,0.04074 -0.0968,0 -0.15788,-0.04074 -0.0611,-0.04584 -0.10695,-0.127324 l -0.95747,-1.736689 v 2.144124 q 0,0.305576 -0.29539,0.305576 z" />
    <path
       inkscape:connector-curvature="0"
       id="path902"
       style="font-style:normal;font-variant:normal;font-weight:bold;font-stretch:normal;font-size:5.09293032px;line-height:1.25;font-family:Nunito;-inkscape-font-specification:'Nunito Bold';letter-spacing:0px;word-spacing:0px;fill:#ffffff;fill-opacity:1;stroke:none;stroke-width:0.26458329"
       d="m -170.75123,47.256751 q -0.51948,0 -0.91164,-0.229183 -0.38706,-0.229182 -0.60096,-0.64171 -0.2139,-0.41762 -0.2139,-0.977842 0,-0.565315 0.2139,-0.977843 0.2139,-0.412527 0.60096,-0.636616 0.38707,-0.229182 0.91164,-0.229182 0.52457,0 0.91163,0.229182 0.38707,0.224089 0.60097,0.636616 0.2139,0.412528 0.2139,0.97275 0,0.565315 -0.2139,0.982935 -0.2139,0.412528 -0.60097,0.64171 -0.38706,0.229182 -0.91163,0.229183 z m 0,-0.560223 q 0.49401,0 0.76903,-0.341226 0.27502,-0.341226 0.27502,-0.947285 0,-0.611152 -0.27502,-0.947285 -0.26992,-0.336135 -0.76903,-0.336135 -0.49401,0 -0.76903,0.336135 -0.27502,0.336132 -0.27502,0.947285 0,0.606059 0.27502,0.947285 0.27502,0.341226 0.76903,0.341226 z" />
    <path
       inkscape:connector-curvature="0"
       id="path904"
       style="font-style:normal;font-variant:normal;font-weight:bold;font-stretch:normal;font-size:5.09293032px;line-height:1.25;font-family:Nunito;-inkscape-font-specification:'Nunito Bold';letter-spacing:0px;word-spacing:0px;fill:#ffffff;fill-opacity:1;stroke:none;stroke-width:0.26458329"
       d="m -168.05707,47.246564 q -0.30558,0 -0.30558,-0.315762 v -3.030294 q 0,-0.157879 0.0764,-0.239367 0.0815,-0.08658 0.20881,-0.08658 0.11713,0 0.17316,0.04584 0.0611,0.04074 0.1426,0.142602 l 1.81817,2.358027 v -2.235796 q 0,-0.310669 0.30558,-0.310669 0.30048,0 0.30048,0.310669 v 3.055758 q 0,0.142602 -0.0713,0.224089 -0.0713,0.08149 -0.19353,0.08149 -0.11714,0 -0.18844,-0.04584 -0.0662,-0.04584 -0.14769,-0.147695 l -1.81818,-2.363119 v 2.24089 q 0,0.315762 -0.30048,0.315762 z" />
    <path
       style="fill:#ffffff;stroke-width:0.99999994"
       d="m -180.38067,51.503126 c -0.42682,-0.02051 -0.77351,-0.188046 -0.99279,-0.479754 -0.0798,-0.106158 -0.13993,-0.231004 -0.17253,-0.358193 -0.0279,-0.1089 -0.0273,-0.0888 -0.0273,-0.875811 v -0.711121 h 0.18875 0.18875 l 0.002,0.487882 c 0.002,0.47673 0.005,0.582048 0.0182,0.764241 0.009,0.12131 0.0222,0.186628 0.0531,0.264322 0.11514,0.289849 0.36244,0.474323 0.69418,0.517809 0.0584,0.0076 0.19547,0.0088 0.25702,0.0021 0.41643,-0.04522 0.72146,-0.337505 0.75964,-0.727897 0.0175,-0.179059 0.0234,-0.405656 0.0235,-0.894951 l 4e-5,-0.413477 h 0.21258 0.21259 v 1.213856 1.213856 l -0.69622,-8.1e-4 c -0.38292,-4.25e-4 -0.70769,-0.0014 -0.72172,-0.002 z m 1.63902,-1.211191 v -1.214026 l 0.7366,0.0016 c 0.79594,0.0017 0.7622,7.77e-4 0.89605,0.02446 0.16889,0.02988 0.32344,0.08627 0.45631,0.166483 0.28615,0.172758 0.47875,0.456839 0.5154,0.760201 0.005,0.03989 0.006,0.180331 0.006,0.762115 l 1.3e-4,0.713221 h -0.1892 -0.1892 l -4e-5,-0.396471 c -6e-5,-0.606121 -0.0118,-0.900898 -0.0409,-1.019031 -0.051,-0.207589 -0.18108,-0.386897 -0.35932,-0.495106 -0.10919,-0.06629 -0.24077,-0.110075 -0.37994,-0.126416 -0.0601,-0.0071 -0.18653,-0.0071 -0.2466,0 -0.31268,0.03672 -0.56155,0.205055 -0.68268,0.461774 -0.0422,0.08951 -0.0644,0.169701 -0.074,0.267856 -0.0175,0.178826 -0.0234,0.402004 -0.0234,0.891792 l -5e-5,0.415602 h -0.21258 -0.21258 z"
       id="path849"
       inkscape:connector-curvature="0" />
  </g>
</svg>
